<?xml version="1.0" encoding="utf-8"?>
<!-- Generator: Adobe Illustrator 19.1.0, SVG Export Plug-In . SVG Version: 6.00 Build 0)  -->
<svg version="1.1" id="Capa_1" xmlns="http://www.w3.org/2000/svg" xmlns:xlink="http://www.w3.org/1999/xlink" x="0px" y="0px"
	 viewBox="0 0 73.2 63.3" style="enable-background:new 0 0 73.2 63.3;" xml:space="preserve">
<style type="text/css">
	.st0{fill:#FFFFFF;stroke:#FFFFFF;stroke-width:1.361;stroke-miterlimit:10;}
	.st1{fill:#FFFFFF;stroke:#FFFFFF;stroke-width:1.361;stroke-linecap:round;stroke-linejoin:round;stroke-miterlimit:10;}
	.st2{fill:#E84B35;}
	.st3{fill:#FFFFFF;}
	.st4{fill:#2B3E51;}
</style>
<g>
	<g>
		<g>
			<path class="st0" d="M57.2,3.4L57.2,3.4c-0.9,0-1.7,0.8-1.7,1.7v0c0,0.9,0.8,1.7,1.7,1.7h0c0.9,0,1.7-0.8,1.7-1.7v0
				C58.9,4.1,58.2,3.4,57.2,3.4z"/>
			<g>
				<g>
					<g>
						<g>
							<path class="st1" d="M28,34v-4.1H16v14.7c0,0.9,0.7,1.6,1.6,1.6h24.1c0.9,0,1.6-0.7,1.6-1.6V37l-2.8-3H28z"/>
						</g>
						<path class="st1" d="M49.3,38.5L49.3,38.5l-3.1,0l-6.4-6.6H24.4v2.9h14.2v0h0l6.4,6.6h4.3v0c0,1.4,1.2,2.6,2.6,2.6h3.6
							c1.4,0,2.6-1.2,2.6-2.6v-3.3c0-1.4-1.2-2.6-2.6-2.6h-3.3C50.5,35.6,49.3,36.9,49.3,38.5z"/>
					</g>
				</g>
				<g>
					<g>
						<path class="st1" d="M32.5,10.8h10.9V2.5c0-0.9-0.7-1.6-1.6-1.6H17.6c-0.9,0-1.6,0.7-1.6,1.6v8.5h16.5V10.8z"/>
						<path class="st1" d="M52.9,3.5L52.9,3.5l-7.6,0l-5,4.3h-4.9v2.9h6l5-4.3h6.5v0c0,1.6,1.3,2.9,2.9,2.9h3c1.6,0,2.9-1.3,2.9-2.9
							v-3c0-1.6-1.3-2.9-2.9-2.9h-3C54.2,0.7,52.9,2,52.9,3.5z M57.2,6.7L57.2,6.7c-0.9,0-1.7-0.8-1.7-1.7v0c0-0.9,0.8-1.7,1.7-1.7
							h0c0.9,0,1.7,0.8,1.7,1.7v0C58.9,6,58.2,6.7,57.2,6.7z"/>
					</g>
				</g>
				<g>
					<g>
						<g>
							<polygon class="st1" points="36.6,19.3 43.4,19.3 43.4,16.4 32.5,16.4 32.5,11 16,11 16,19.3 36.6,19.3 							"/>
						</g>
						<path class="st1" d="M47.1,14L47.1,14l-19.5,0v3h12.3v0h7.2v0.1c0,1.5,1.3,2.8,2.8,2.8h3.1c1.5,0,2.8-1.3,2.8-2.8V14
							c0-1.5-1.3-2.8-2.8-2.8h-3.1C48.3,11.2,47.1,12.5,47.1,14z"/>
					</g>
				</g>
				<g>
					<g>
						<g>
							<polygon class="st1" points="28,27.6 43.4,27.6 43.4,24.7 36.6,24.7 36.6,19.3 16,19.3 16,30 28,30 							"/>
						</g>
						<path class="st1" d="M57.9,26.4V27h-6.6L48,22.5H28.2v3h18.3l3.4,4.5h8v0c0,1.5,1.2,2.7,2.7,2.7h3.4c1.5,0,2.7-1.2,2.7-2.7
							v-3.5c0-1.5-1.2-2.7-2.7-2.7h-3.4C59.1,23.8,57.9,25,57.9,26.4z"/>
					</g>
				</g>
			</g>
			<g>
				<path class="st2" d="M3.5,53.9H0v-2.3h9.6v2.3H6.1v9.2H3.5V53.9z"/>
				<path class="st2" d="M10.7,51.6h4.5c0.9,0,1.7,0.1,2.5,0.4c0.8,0.3,1.4,0.7,2,1.2s1,1.1,1.3,1.8s0.4,1.5,0.4,2.3v0
					c0,0.8-0.1,1.6-0.4,2.3s-0.7,1.3-1.3,1.8c-0.5,0.5-1.2,0.9-2,1.2c-0.8,0.3-1.6,0.4-2.5,0.4h-4.5V51.6z M15.2,60.8
					c0.5,0,1-0.1,1.4-0.2c0.4-0.2,0.8-0.4,1.1-0.7s0.5-0.7,0.7-1.1c0.2-0.4,0.3-0.9,0.3-1.4v0c0-0.5-0.1-1-0.3-1.4
					c-0.2-0.4-0.4-0.8-0.7-1.1c-0.3-0.3-0.7-0.5-1.1-0.7c-0.4-0.2-0.9-0.3-1.4-0.3h-2v7H15.2z"/>
				<path class="st3" d="M22.8,51.6h2.7l3,4.9l3-4.9h2.7v11.6h-2.5v-7.6l-3.3,4.9h-0.1l-3.2-4.9v7.5h-2.5V51.6z"/>
				<path class="st3" d="M40.4,63.3c-0.7,0-1.3-0.1-1.9-0.4c-0.6-0.2-1.1-0.6-1.5-1s-0.8-0.9-1-1.5c-0.2-0.6-0.4-1.2-0.4-1.8v0
					c0-0.6,0.1-1.2,0.4-1.8c0.2-0.6,0.6-1,1-1.5c0.4-0.4,0.9-0.7,1.5-1c0.6-0.2,1.2-0.4,1.9-0.4c0.7,0,1.3,0.1,1.9,0.4
					c0.6,0.2,1.1,0.6,1.5,1c0.4,0.4,0.8,0.9,1,1.5s0.4,1.2,0.4,1.8v0c0,0.6-0.1,1.2-0.4,1.8s-0.6,1-1,1.5s-0.9,0.8-1.5,1
					C41.8,63.2,41.1,63.3,40.4,63.3z M40.5,61.2c0.4,0,0.7-0.1,1-0.2c0.3-0.1,0.5-0.3,0.7-0.5c0.2-0.2,0.3-0.5,0.5-0.8
					c0.1-0.3,0.2-0.6,0.2-0.9v0c0-0.3-0.1-0.6-0.2-0.9c-0.1-0.3-0.3-0.6-0.5-0.8c-0.2-0.2-0.5-0.4-0.7-0.5s-0.6-0.2-0.9-0.2
					c-0.4,0-0.7,0.1-1,0.2c-0.3,0.1-0.5,0.3-0.7,0.5c-0.2,0.2-0.3,0.5-0.5,0.8c-0.1,0.3-0.2,0.6-0.2,0.9v0c0,0.3,0.1,0.6,0.2,0.9
					c0.1,0.3,0.3,0.6,0.5,0.8c0.2,0.2,0.5,0.4,0.7,0.5S40.1,61.2,40.5,61.2z"/>
				<path class="st3" d="M51.5,63.3c-0.7,0-1.2-0.1-1.7-0.4s-0.8-0.6-1.1-0.9v1.2h-2.5V51.1h2.5v4.5c0.3-0.4,0.7-0.8,1.1-1
					s1-0.4,1.6-0.4c0.5,0,1,0.1,1.5,0.3c0.5,0.2,0.9,0.5,1.3,0.9c0.4,0.4,0.7,0.9,0.9,1.4c0.2,0.6,0.3,1.2,0.3,2v0
					c0,0.7-0.1,1.4-0.3,2c-0.2,0.6-0.5,1-0.9,1.4c-0.4,0.4-0.8,0.7-1.3,0.9S52,63.3,51.5,63.3z M50.9,61.2c0.3,0,0.6-0.1,0.8-0.2
					c0.3-0.1,0.5-0.3,0.7-0.5c0.2-0.2,0.4-0.5,0.5-0.8c0.1-0.3,0.2-0.6,0.2-1v0c0-0.4-0.1-0.7-0.2-1c-0.1-0.3-0.3-0.6-0.5-0.8
					c-0.2-0.2-0.4-0.4-0.7-0.5c-0.3-0.1-0.5-0.2-0.8-0.2c-0.3,0-0.6,0.1-0.8,0.2s-0.5,0.3-0.7,0.5c-0.2,0.2-0.3,0.5-0.5,0.8
					c-0.1,0.3-0.2,0.6-0.2,1v0c0,0.4,0.1,0.7,0.2,1c0.1,0.3,0.3,0.6,0.5,0.8c0.2,0.2,0.4,0.4,0.7,0.5S50.6,61.2,50.9,61.2z"/>
				<path class="st3" d="M56.6,51.1h2.6v2.2h-2.6V51.1z M56.7,54.3h2.5v8.9h-2.5V54.3z"/>
				<path class="st3" d="M60.9,51.1h2.5v12.1h-2.5V51.1z"/>
				<path class="st3" d="M69.1,63.3c-0.7,0-1.3-0.1-1.8-0.3c-0.6-0.2-1.1-0.5-1.5-0.9c-0.4-0.4-0.7-0.9-1-1.4s-0.3-1.2-0.3-1.9v0
					c0-0.6,0.1-1.2,0.3-1.8c0.2-0.6,0.5-1.1,0.9-1.5c0.4-0.4,0.8-0.7,1.4-1c0.5-0.2,1.1-0.4,1.8-0.4c0.7,0,1.4,0.1,1.9,0.4
					c0.5,0.3,1,0.6,1.3,1.1c0.4,0.4,0.6,1,0.8,1.5c0.2,0.6,0.3,1.2,0.3,1.8c0,0.1,0,0.2,0,0.3c0,0.1,0,0.2,0,0.3H67
					c0.1,0.6,0.4,1,0.8,1.3c0.4,0.3,0.9,0.4,1.4,0.4c0.4,0,0.8-0.1,1.1-0.2c0.3-0.1,0.7-0.4,1-0.7l1.4,1.3c-0.4,0.5-0.9,0.9-1.5,1.2
					S69.9,63.3,69.1,63.3z M70.7,58c-0.1-0.6-0.3-1-0.6-1.4s-0.7-0.5-1.3-0.5s-1,0.2-1.3,0.5C67.3,57,67,57.4,66.9,58H70.7z"/>
			</g>
		</g>
	</g>
	<g>
		<g>
			<g>
				<g>
					<g>
						<path class="st4" d="M28,34v-4.1H16v14.7c0,0.9,0.7,1.6,1.6,1.6h24.1c0.9,0,1.6-0.7,1.6-1.6V37l-2.8-3H28z M31,41.9
							c0,0.8-0.6,1.4-1.4,1.4h0c-0.8,0-1.4-0.6-1.4-1.4v0c0-0.8,0.6-1.4,1.4-1.4h0C30.4,40.5,31,41.1,31,41.9L31,41.9z"/>
					</g>
				</g>
				<path class="st4" d="M49.3,38.5L49.3,38.5l-3.1,0l-6.4-6.6H24.4v2.9h14.2v0h0l6.4,6.6h4.3v0c0,1.4,1.2,2.6,2.6,2.6h3.6
					c1.4,0,2.6-1.2,2.6-2.6v-3.3c0-1.4-1.2-2.6-2.6-2.6h-3.3C50.5,35.6,49.3,36.9,49.3,38.5z M53.6,41.6L53.6,41.6
					c-0.9,0-1.7-0.8-1.7-1.7v0c0-0.9,0.8-1.7,1.7-1.7h0c0.9,0,1.7,0.8,1.7,1.7v0C55.3,40.9,54.5,41.6,53.6,41.6z"/>
			</g>
		</g>
		<g>
			<g>
				<g>
					<g>
						<path class="st4" d="M32.5,10.8h10.9V2.5c0-0.9-0.7-1.6-1.6-1.6H17.6c-0.9,0-1.6,0.7-1.6,1.6v8.5h16.5V10.8z M26.5,4.7
							c0,0.8-0.6,1.4-1.4,1.4h0c-0.8,0-1.4-0.6-1.4-1.4v0c0-0.8,0.6-1.4,1.4-1.4h0C25.9,3.3,26.5,3.9,26.5,4.7L26.5,4.7z M28.2,4.7
							c0-0.8,0.6-1.4,1.4-1.4h4.4c0.8,0,1.4,0.6,1.4,1.4c0,0.8-0.6,1.4-1.4,1.4h-4.4C28.8,6.1,28.2,5.5,28.2,4.7z"/>
					</g>
				</g>
				<path class="st4" d="M52.9,3.5L52.9,3.5l-7.6,0l-5,4.3h-4.9v2.9h6l5-4.3h6.5v0c0,1.6,1.3,2.9,2.9,2.9h3c1.6,0,2.9-1.3,2.9-2.9
					v-3c0-1.6-1.3-2.9-2.9-2.9h-3C54.2,0.7,52.9,2,52.9,3.5z M57.2,6.7L57.2,6.7c-0.9,0-1.7-0.8-1.7-1.7v0c0-0.9,0.8-1.7,1.7-1.7h0
					c0.9,0,1.7,0.8,1.7,1.7v0C58.9,6,58.2,6.7,57.2,6.7z"/>
			</g>
		</g>
		<g>
			<g>
				<g>
					<g>
						<polygon class="st2" points="36.6,19.3 43.4,19.3 43.4,16.4 32.5,16.4 32.5,11 16,11 16,19.3 36.6,19.3 						"/>
					</g>
				</g>
				<path class="st2" d="M47.1,14L47.1,14l-19.5,0v3h12.3v0h7.2v0.1c0,1.5,1.3,2.8,2.8,2.8h3.1c1.5,0,2.8-1.3,2.8-2.8V14
					c0-1.5-1.3-2.8-2.8-2.8h-3.1C48.3,11.2,47.1,12.5,47.1,14z M51.4,17.3L51.4,17.3c-0.9,0-1.7-0.8-1.7-1.7v0
					c0-0.9,0.8-1.7,1.7-1.7h0c0.9,0,1.7,0.8,1.7,1.7v0C53.1,16.5,52.3,17.3,51.4,17.3z"/>
			</g>
		</g>
		<g>
			<g>
				<g>
					<g>
						<polygon class="st4" points="28,27.6 43.4,27.6 43.4,24.7 36.6,24.7 36.6,19.3 16,19.3 16,30 28,30 						"/>
					</g>
				</g>
				<path class="st4" d="M57.9,26.4V27h-6.6L48,22.5H28.2v3h18.3l3.4,4.5h8v0c0,1.5,1.2,2.7,2.7,2.7h3.4c1.5,0,2.7-1.2,2.7-2.7v-3.5
					c0-1.5-1.2-2.7-2.7-2.7h-3.4C59.1,23.8,57.9,25,57.9,26.4z M62.3,29.8L62.3,29.8c-0.9,0-1.7-0.8-1.7-1.7v0
					c0-0.9,0.8-1.7,1.7-1.7h0c0.9,0,1.7,0.8,1.7,1.7v0C64,29,63.2,29.8,62.3,29.8z"/>
			</g>
		</g>
	</g>
</g>
</svg>
